<svg width="20" height="20" viewBox="0 0 25 24" fill="none" xmlns="http://www.w3.org/2000/svg">
<path d="M10.5801 14.8213C12.0239 14.6939 13.4762 14.6939 14.9199 14.8213L15.3809 14.8604C16.0112 14.9225 16.637 15.0199 17.2529 15.1514C18.8233 15.4749 19.964 16.0488 20.4688 17.1133C20.8434 17.905 20.8436 18.8242 20.4688 19.6162C19.9627 20.6832 18.807 21.2621 17.2647 21.5664L16.7979 21.6641C16.1734 21.7839 15.5435 21.8654 14.918 21.9082C13.7439 22.0082 12.5636 22.0265 11.4258 21.9639C11.3007 21.9639 11.2166 21.9636 11.1426 21.9619L10.9981 21.9561C10.8229 21.9471 10.6623 21.9289 10.5947 21.9092C9.80315 21.8554 9.01608 21.7405 8.26174 21.5703L8.00588 21.5176C6.57775 21.2002 5.51965 20.6268 5.03029 19.6152C4.84519 19.223 4.74956 18.7937 4.75002 18.3633C4.74839 17.9295 4.84503 17.4998 5.03713 17.0996C5.54683 16.0763 6.74482 15.4606 8.24123 15.1523C9.01651 14.9862 9.80252 14.8753 10.5801 14.8213ZM14.794 16.2637C13.4342 16.1437 12.0663 16.1437 10.6934 16.2646C9.97009 16.315 9.2508 16.4162 8.53615 16.5693C7.42934 16.7974 6.58281 17.2328 6.33107 17.7383C6.23855 17.9313 6.19062 18.1434 6.19143 18.3613C6.19122 18.5805 6.23959 18.7974 6.3301 18.9893C6.58917 19.5244 7.38787 19.925 8.55764 20.1543L8.91018 20.2285C9.50047 20.3455 10.1086 20.4265 10.7842 20.4775C10.8695 20.4947 10.9621 20.5052 11.0713 20.5107L11.4649 20.5176C12.575 20.5776 13.6881 20.5601 14.8076 20.4648C15.5292 20.4154 16.2463 20.3118 16.9697 20.1504L17.1944 20.1025C18.2217 19.8696 18.9329 19.4875 19.167 18.9941C19.3555 18.5958 19.3553 18.1333 19.167 17.7354C18.9166 17.2073 18.1252 16.8087 16.959 16.5684C16.2496 16.4169 15.5302 16.3156 14.8067 16.2646L14.794 16.2637ZM12.7539 2C15.6879 2 18.0663 4.38852 18.0664 7.33496C18.0664 10.2815 15.688 12.6699 12.7539 12.6699C9.82008 12.6697 7.44143 10.2814 7.44143 7.33496C7.44154 4.38865 9.82015 2.00021 12.7539 2ZM12.7539 3.44727C10.6163 3.44748 8.88295 5.18818 8.88283 7.33496C8.88283 9.48184 10.6162 11.2224 12.7539 11.2227C14.8918 11.2227 16.625 9.48197 16.625 7.33496C16.6249 5.18805 14.8918 3.44727 12.7539 3.44727Z" fill="black"/>
</svg>
