<svg width="18" height="18" viewBox="0 0 21 20" fill="none" xmlns="http://www.w3.org/2000/svg">
<path d="M9.7765 3.85055C14.2914 3.85055 11.3028 3.85055 15.3251 3.85055C19.3473 3.85055 20.4493 3.85055 19.3473 9.32444C18.23 14.8741 17.1327 15.3097 13.3139 14.8741C7.20837 14.1775 7.59206 13.9843 6.27502 8.21452C4.6282 1 5.71972 1 1.75 1" stroke="black" stroke-width="1.7" stroke-linecap="round" stroke-linejoin="round"/>
<path d="M8.25 19C8.52614 19 8.75 18.7761 8.75 18.5C8.75 18.2239 8.52614 18 8.25 18C7.97386 18 7.75 18.2239 7.75 18.5C7.75 18.7761 7.97386 19 8.25 19Z" fill="black" stroke="black" stroke-width="1.7" stroke-linecap="round" stroke-linejoin="round"/>
<path d="M16.25 19C16.5261 19 16.75 18.7761 16.75 18.5C16.75 18.2239 16.5261 18 16.25 18C15.9739 18 15.75 18.2239 15.75 18.5C15.75 18.7761 15.9739 19 16.25 19Z" fill="black" stroke="black" stroke-width="1.7" stroke-linecap="round" stroke-linejoin="round"/>
</svg>
