<svg width="8" height="8" viewBox="0 0 8 8" fill="none" xmlns="http://www.w3.org/2000/svg">
<path d="M0.824648 7.79532C0.634648 7.79532 0.444648 7.72532 0.294648 7.57532C0.00464845 7.28532 0.00464845 6.80532 0.294648 6.51532L5.95465 0.855317C6.24465 0.565317 6.72465 0.565317 7.01465 0.855317C7.30465 1.14532 7.30465 1.62532 7.01465 1.91532L1.35465 7.57532C1.21465 7.72532 1.01465 7.79532 0.824648 7.79532Z" fill="black"/>
<path d="M6.48465 7.79532C6.29465 7.79532 6.10465 7.72532 5.95465 7.57532L0.294648 1.91532C0.00464845 1.62532 0.00464845 1.14532 0.294648 0.855317C0.584648 0.565317 1.06465 0.565317 1.35465 0.855317L7.01465 6.51532C7.30465 6.80532 7.30465 7.28532 7.01465 7.57532C6.86465 7.72532 6.67465 7.79532 6.48465 7.79532Z" fill="black"/>
</svg>
