<?xml version="1.0" encoding="iso-8859-1"?>
<!-- Uploaded to: SVG Repo, www.svgrepo.com, Generator: SVG Repo Mixer Tools -->
<svg fill="auto" height="18" width="18" version="1.1" id="Layer_1" xmlns="http://www.w3.org/2000/svg" xmlns:xlink="http://www.w3.org/1999/xlink" 
	 viewBox="0 0 512 512" xml:space="preserve">
<g>
	<g>
		<path d="M372.87,32.235c-47.689,0-91.267,23.937-116.873,62.034c-25.61-38.096-69.188-62.034-116.866-62.034
			C62.414,32.235,0,94.649,0,171.365c0,37.957,14.159,73.023,39.866,98.738l204.315,204.761c6.52,6.534,17.115,6.535,23.638-0.001
			l204.239-204.718c25.758-25.768,39.943-60.85,39.943-98.78C512,94.649,449.586,32.235,372.87,32.235z M448.431,246.552
			L255.999,439.434L63.504,246.518c-0.004-0.004-0.009-0.008-0.013-0.012c-19.409-19.41-30.099-46.096-30.099-75.14
			c0-58.305,47.435-105.739,105.739-105.739c45.574,0,86.207,28.592,101.112,71.149c5.206,14.859,26.313,14.864,31.516-0.003
			c14.895-42.555,55.528-71.146,101.111-71.146c58.305,0,105.739,47.435,105.739,105.739
			C478.609,200.38,467.896,227.078,448.431,246.552z"/>
	</g>
</g>
</svg>
