<svg width="20" height="20" viewBox="0 0 24 24" fill="none" xmlns="http://www.w3.org/2000/svg">
<path d="M11.6113 2C16.9196 2 21.2227 6.20835 21.2227 11.3994C21.2226 13.8486 20.2637 16.0781 18.6943 17.751L21.7822 20.7637C22.0716 21.0459 22.0726 21.504 21.7842 21.7871C21.5217 22.0444 21.1104 22.0683 20.8203 21.8584L20.7373 21.7891L17.6104 18.7393C15.9658 20.0264 13.8816 20.7988 11.6113 20.7988C6.30317 20.7987 2.00008 16.5903 2 11.3994C2 6.20842 6.30312 2.00011 11.6113 2ZM11.6113 3.44727C7.12074 3.44738 3.48047 7.00798 3.48047 11.3994C3.48055 15.7908 7.12079 19.3505 11.6113 19.3506C16.102 19.3506 19.7421 15.7908 19.7422 11.3994C19.7422 7.00791 16.102 3.44727 11.6113 3.44727Z" fill="black"/>
</svg>
