<svg width="24" height="25" viewBox="0 0 24 25" fill="none" xmlns="http://www.w3.org/2000/svg">
<path d="M19.5 6L18.8803 16.0251C18.7219 18.5864 18.6428 19.8671 18.0008 20.7879C17.6833 21.2431 17.2747 21.6273 16.8007 21.916C15.8421 22.5 14.559 22.5 11.9927 22.5C9.42312 22.5 8.1383 22.5 7.17905 21.9149C6.7048 21.6257 6.296 21.2408 5.97868 20.7848C5.33688 19.8626 5.25945 18.5801 5.10461 16.0152L4.5 6" stroke="#E94755" stroke-width="1.5" stroke-linecap="round"></path>
<path d="M9 12.2349H15" stroke="#E94755" stroke-width="1.5" stroke-linecap="round"></path>
<path d="M10.5 16.1543H13.5" stroke="#E94755" stroke-width="1.5" stroke-linecap="round"></path>
<path d="M3 6H21M16.0555 6L15.3729 4.59173C14.9194 3.65626 14.6926 3.18852 14.3015 2.89681C14.2148 2.8321 14.1229 2.77454 14.0268 2.7247C13.5937 2.5 13.0739 2.5 12.0343 2.5C10.9686 2.5 10.4358 2.5 9.99549 2.73412C9.89791 2.78601 9.80479 2.8459 9.7171 2.91317C9.32145 3.2167 9.10044 3.70155 8.65842 4.67126L8.05273 6" stroke="#E94755" stroke-width="1.5" stroke-linecap="round"></path>
</svg>
